<?xml version="1.0" encoding="utf-8" standalone="no"?>
<!DOCTYPE svg PUBLIC "-//W3C//DTD SVG 1.1//EN"
  "http://www.w3.org/Graphics/SVG/1.1/DTD/svg11.dtd">
<!-- Created with matplotlib (http://matplotlib.org/) -->
<svg height="195pt" version="1.1" viewBox="0 0 248 195" width="248pt" xmlns="http://www.w3.org/2000/svg" xmlns:xlink="http://www.w3.org/1999/xlink">
 <defs>
  <style type="text/css">
*{stroke-linecap:butt;stroke-linejoin:round;}
  </style>
 </defs>
 <g id="figure_1">
  <g id="patch_1">
   <path d="M -0 195.267219 
L 248.211406 195.267219 
L 248.211406 0 
L -0 0 
z
" style="fill:#ffffff;"/>
  </g>
  <g id="axes_1">
   <g id="patch_2">
    <path d="M 42.102656 157.7255 
L 209.502656 157.7255 
L 209.502656 32.6975 
L 42.102656 32.6975 
z
" style="fill:#ffffff;"/>
   </g>
   <g id="matplotlib.axis_1">
    <g id="xtick_1">
     <g id="line2d_1">
      <defs>
       <path d="M 0 0 
L 0 3 
" id="mead92e1957" style="stroke:#262626;stroke-width:0.8;"/>
      </defs>
      <g>
       <use style="fill:#262626;stroke:#262626;stroke-width:0.8;" x="42.102656" xlink:href="#mead92e1957" y="162.7255"/>
      </g>
     </g>
     <g id="text_1">
      <text style="fill:#262626;font-family:Arial;font-size:7px;font-style:normal;font-weight:400;text-anchor:middle;" transform="rotate(-0, 42.102656, 172.735969)" x="42.102656" y="172.735969">0</text>
     </g>
    </g>
    <g id="xtick_2">
     <g id="line2d_2">
      <g>
       <use style="fill:#262626;stroke:#262626;stroke-width:0.8;" x="83.952656" xlink:href="#mead92e1957" y="162.7255"/>
      </g>
     </g>
     <g id="text_2">
      <text style="fill:#262626;font-family:Arial;font-size:7px;font-style:normal;font-weight:400;text-anchor:middle;" transform="rotate(-0, 83.952656, 172.735969)" x="83.952656" y="172.735969">1</text>
     </g>
    </g>
    <g id="xtick_3">
     <g id="line2d_3">
      <g>
       <use style="fill:#262626;stroke:#262626;stroke-width:0.8;" x="125.802656" xlink:href="#mead92e1957" y="162.7255"/>
      </g>
     </g>
     <g id="text_3">
      <text style="fill:#262626;font-family:Arial;font-size:7px;font-style:normal;font-weight:400;text-anchor:middle;" transform="rotate(-0, 125.802656, 172.735969)" x="125.802656" y="172.735969">2</text>
     </g>
    </g>
    <g id="xtick_4">
     <g id="line2d_4">
      <g>
       <use style="fill:#262626;stroke:#262626;stroke-width:0.8;" x="167.652656" xlink:href="#mead92e1957" y="162.7255"/>
      </g>
     </g>
     <g id="text_4">
      <text style="fill:#262626;font-family:Arial;font-size:7px;font-style:normal;font-weight:400;text-anchor:middle;" transform="rotate(-0, 167.652656, 172.735969)" x="167.652656" y="172.735969">3</text>
     </g>
    </g>
    <g id="xtick_5">
     <g id="line2d_5">
      <g>
       <use style="fill:#262626;stroke:#262626;stroke-width:0.8;" x="209.502656" xlink:href="#mead92e1957" y="162.7255"/>
      </g>
     </g>
     <g id="text_5">
      <text style="fill:#262626;font-family:Arial;font-size:7px;font-style:normal;font-weight:400;text-anchor:middle;" transform="rotate(-0, 209.502656, 172.735969)" x="209.502656" y="172.735969">4</text>
     </g>
    </g>
    <g id="text_6">
     <!-- Time (scaled in units of 2$\mu$$T$ x 10$^{-5}$) -->
     <g style="fill:#262626;" transform="translate(71.027656 186.527219)">
      <text>
       <tspan style="font-family:Arial;font-size:7px;font-style:regular;font-weight:regular;" x="0 4.275879 5.831055 11.662109 15.555176 17.5 19.831055 23.331055 26.831055 30.724121 32.279297 36.172363 40.06543 42.010254 43.56543 47.458496 49.40332 53.296387 57.189453 58.744629 60.689453 64.189453 66.134277 70.027344 71.972168 73.916992 85.920898 87.865723 91.365723 93.310547 97.203613 107.153782" y="-0.6651875000000018">Time (scaled in units of 2 x 10)</tspan>
       <tspan style="font-family:Arial;font-size:7px;font-style:italic;font-weight:italic;" x="77.810059 81.64502" y="-0.6651875000000018">μT</tspan>
       <tspan style="font-family:Arial;font-size:4.9px;font-style:regular;font-weight:regular;" x="101.218644 104.080167" y="-5.543750000000001">−5</tspan>
      </text>
     </g>
    </g>
   </g>
   <g id="matplotlib.axis_2">
    <g id="ytick_1">
     <g id="line2d_6">
      <defs>
       <path d="M 0 0 
L -3 0 
" id="mf9bdf6cf7f" style="stroke:#262626;stroke-width:0.8;"/>
      </defs>
      <g>
       <use style="fill:#262626;stroke:#262626;stroke-width:0.8;" x="37.102656" xlink:href="#mf9bdf6cf7f" y="157.7255"/>
      </g>
     </g>
     <g id="text_7">
      <text style="fill:#262626;font-family:Arial;font-size:7px;font-style:normal;font-weight:400;text-anchor:end;" transform="rotate(-0, 32.102656, 160.230734)" x="32.102656" y="160.230734">0.00</text>
     </g>
    </g>
    <g id="ytick_2">
     <g id="line2d_7">
      <g>
       <use style="fill:#262626;stroke:#262626;stroke-width:0.8;" x="37.102656" xlink:href="#mf9bdf6cf7f" y="127.956929"/>
      </g>
     </g>
     <g id="text_8">
      <text style="fill:#262626;font-family:Arial;font-size:7px;font-style:normal;font-weight:400;text-anchor:end;" transform="rotate(-0, 32.102656, 130.462163)" x="32.102656" y="130.462163">0.05</text>
     </g>
    </g>
    <g id="ytick_3">
     <g id="line2d_8">
      <g>
       <use style="fill:#262626;stroke:#262626;stroke-width:0.8;" x="37.102656" xlink:href="#mf9bdf6cf7f" y="98.188357"/>
      </g>
     </g>
     <g id="text_9">
      <text style="fill:#262626;font-family:Arial;font-size:7px;font-style:normal;font-weight:400;text-anchor:end;" transform="rotate(-0, 32.102656, 100.693592)" x="32.102656" y="100.693592">0.10</text>
     </g>
    </g>
    <g id="ytick_4">
     <g id="line2d_9">
      <g>
       <use style="fill:#262626;stroke:#262626;stroke-width:0.8;" x="37.102656" xlink:href="#mf9bdf6cf7f" y="68.419786"/>
      </g>
     </g>
     <g id="text_10">
      <text style="fill:#262626;font-family:Arial;font-size:7px;font-style:normal;font-weight:400;text-anchor:end;" transform="rotate(-0, 32.102656, 70.92502)" x="32.102656" y="70.92502">0.15</text>
     </g>
    </g>
    <g id="ytick_5">
     <g id="line2d_10">
      <g>
       <use style="fill:#262626;stroke:#262626;stroke-width:0.8;" x="37.102656" xlink:href="#mf9bdf6cf7f" y="38.651214"/>
      </g>
     </g>
     <g id="text_11">
      <text style="fill:#262626;font-family:Arial;font-size:7px;font-style:normal;font-weight:400;text-anchor:end;" transform="rotate(-0, 32.102656, 41.156449)" x="32.102656" y="41.156449">0.20</text>
     </g>
    </g>
    <g id="text_12">
     <!-- Population size (scaled in units of 4$\mu$$N_{e}$) -->
     <g style="fill:#262626;" transform="translate(12.31 157.2315)rotate(-90)">
      <text>
       <tspan style="font-family:Arial;font-size:7px;font-style:regular;font-weight:regular;" x="0 4.668945 8.562012 12.455078 16.348145 17.90332 21.796387 23.741211 25.296387 29.189453 33.08252 35.027344 38.527344 40.08252 43.58252 47.475586 49.42041 51.751465 55.251465 58.751465 62.644531 64.199707 68.092773 71.98584 73.930664 75.48584 79.378906 81.32373 85.216797 89.109863 90.665039 92.609863 96.109863 98.054688 101.947754 103.892578 105.837402 121.694221" y="-0.90625">Population size (scaled in units of 4)</tspan>
       <tspan style="font-family:Arial;font-size:7px;font-style:italic;font-weight:italic;" x="109.730469 113.56543" y="-0.90625">μN</tspan>
       <tspan style="font-family:Arial;font-size:4.9px;font-style:italic;font-weight:italic;" x="118.620605" y="1.1845625000000002">e</tspan>
      </text>
     </g>
    </g>
   </g>
   <g id="line2d_11">
    <path clip-path="url(#pd771dc661c)" d="M 42.102656 99.701648 
L 42.907904 99.701648 
L 42.907904 99.701648 
L 42.907904 99.701648 
L 43.731046 99.701648 
L 43.731046 99.701648 
L 43.731046 99.701648 
L 43.731046 99.602996 
L 44.574116 99.602996 
L 44.574116 99.255667 
L 63.926287 99.231722 
L 63.926287 99.824637 
L 65.279857 99.824637 
L 65.279857 125.22334 
L 66.061695 125.22334 
L 66.061695 126.927095 
L 69.253061 126.927269 
L 69.253061 127.064056 
L 70.990135 127.161657 
L 70.990135 127.197705 
L 79.16431 127.291638 
L 79.16431 127.32505 
L 90.08645 127.409939 
L 90.08645 127.62 
L 93.391734 127.661883 
L 93.391734 127.836883 
L 96.976887 127.904033 
L 96.976887 127.957672 
L 98.891943 127.957672 
L 98.891943 128.305524 
L 100.876946 128.305524 
L 100.876946 128.490421 
L 102.948101 128.490421 
L 102.948101 129.28719 
L 105.066127 129.28719 
L 105.066127 130.534915 
L 107.197809 130.534915 
L 107.197809 132.309972 
L 109.298035 132.309972 
L 109.298035 133.527724 
L 111.408719 133.527724 
L 111.408719 134.143516 
L 113.583232 134.143516 
L 113.583232 135.139816 
L 115.788383 135.139816 
L 115.788383 135.70419 
L 118.068737 135.70419 
L 118.068737 136.247285 
L 120.431861 136.247285 
L 120.431861 136.489844 
L 125.565404 136.542794 
L 125.565404 136.679242 
L 134.616207 136.705224 
L 134.616207 136.822378 
L 150.215803 136.913759 
L 150.215803 136.982504 
L 160.178254 137.050085 
L 160.178254 145.679736 
L 163.5105 145.679736 
L 163.5105 145.992 
L 180.466026 146.082754 
L 180.466026 146.361582 
L 185.967372 146.361582 
L 185.967372 146.598657 
L 192.12346 146.598657 
L 192.12346 146.97079 
L 198.989074 146.97079 
L 198.989074 148.450809 
L 205.89667 148.450809 
L 205.89667 149.281688 
L 213.328859 149.281688 
L 213.328859 150.669031 
L 220.782129 150.669031 
L 220.782129 151.078222 
L 249.211406 151.134432 
L 249.211406 151.134432 
" style="fill:none;stroke:#fece65;stroke-linecap:round;stroke-width:2;"/>
   </g>
   <g id="line2d_12">
    <path clip-path="url(#pd771dc661c)" d="M 42.102656 78.49386 
L 42.589569 78.49386 
L 42.589569 78.49386 
L 42.589569 78.49386 
L 43.083642 78.49386 
L 43.083642 78.49386 
L 43.083642 78.49386 
L 43.585035 78.49386 
L 43.585035 79.607124 
L 44.086761 79.607124 
L 44.086761 79.801849 
L 44.594762 79.801849 
L 44.594762 78.49386 
L 46.191556 78.49386 
L 46.191556 72.315433 
L 46.783292 72.315433 
L 46.783292 72.803886 
L 47.380837 72.803886 
L 47.380837 76.576471 
L 47.960829 76.576471 
L 47.960829 74.569826 
L 48.564596 74.569826 
L 48.564596 72.876288 
L 49.190517 72.876288 
L 49.190517 76.901837 
L 49.796358 76.901837 
L 49.796358 80.507205 
L 50.384586 80.507205 
L 50.384586 86.925757 
L 50.932761 86.925757 
L 50.932761 92.029918 
L 51.449823 92.029918 
L 51.449823 98.957375 
L 51.920072 98.957375 
L 51.920072 102.468909 
L 52.369653 102.468909 
L 52.369653 104.389699 
L 52.810961 104.389699 
L 52.810961 106.348366 
L 53.243329 106.348366 
L 53.243329 108.126611 
L 53.66793 108.126611 
L 53.66793 108.857648 
L 54.093547 108.857648 
L 54.093547 109.222744 
L 54.523396 109.222744 
L 54.523396 109.465669 
L 54.958662 109.465669 
L 54.958662 109.698767 
L 55.847886 109.754081 
L 55.847886 109.945736 
L 56.765066 109.994109 
L 56.765066 110.353413 
L 57.70882 110.361148 
L 57.70882 110.829425 
L 59.685094 110.880755 
L 59.685094 111.030345 
L 62.941049 111.123518 
L 62.941049 111.229777 
L 64.112958 111.273372 
L 64.112958 111.795909 
L 64.710534 111.795909 
L 64.710534 112.134581 
L 65.31646 112.134581 
L 65.31646 112.614065 
L 67.849343 112.618364 
L 67.849343 112.726205 
L 69.198723 112.796719 
L 69.198723 112.852605 
L 72.083566 112.933544 
L 72.083566 113.099975 
L 74.425373 113.136317 
L 74.425373 113.285707 
L 76.078617 113.373126 
L 76.078617 113.421556 
L 77.813202 113.52637 
L 77.813202 113.74642 
L 79.629735 113.774313 
L 79.629735 113.863187 
L 81.540677 113.95517 
L 81.540677 114.077915 
L 85.679293 114.157646 
L 85.679293 114.232917 
L 91.583182 114.232917 
L 91.583182 115.125124 
L 92.850347 115.125124 
L 92.850347 129.469288 
L 93.718397 129.469288 
L 93.718397 135.775052 
L 94.415207 135.775052 
L 94.415207 136.115575 
L 99.936532 136.153532 
L 99.936532 136.28916 
L 102.752853 136.325162 
L 102.752853 136.660547 
L 106.999797 136.742674 
L 106.999797 136.829311 
L 110.682055 136.829311 
L 110.682055 137.25718 
L 114.825041 137.295036 
L 114.825041 137.414834 
L 116.337737 137.414834 
L 116.337737 137.543003 
L 123.195785 137.597276 
L 123.195785 137.682059 
L 134.28511 137.682059 
L 134.28511 143.720628 
L 145.132868 143.720628 
L 145.132868 143.520543 
L 147.883552 143.520543 
L 147.883552 142.965025 
L 154.404188 142.857895 
L 154.404188 142.483031 
L 158.237423 142.483031 
L 158.237423 141.146503 
L 162.823708 141.146503 
L 162.823708 141.345827 
L 167.831816 141.345827 
L 167.831816 141.687234 
L 173.280397 141.687234 
L 173.280397 143.289914 
L 178.761464 143.289914 
L 178.761464 144.944316 
L 184.220982 144.944316 
L 184.220982 147.363276 
L 189.237401 147.363276 
L 189.237401 151.265749 
L 192.811352 151.265749 
L 192.811352 154.438688 
L 194.909594 154.438688 
L 194.909594 155.082142 
L 196.878312 155.082142 
L 196.878312 155.37371 
L 201.372479 155.430421 
L 201.372479 155.908229 
L 206.81872 155.80429 
L 206.81872 149.228544 
L 224.447711 149.228544 
L 224.447711 129.222909 
L 249.211406 129.222909 
L 249.211406 129.222909 
" style="fill:none;stroke:#fa6949;stroke-linecap:round;stroke-width:2;"/>
   </g>
   <g id="line2d_13">
    <path clip-path="url(#pd771dc661c)" d="M 42.102656 53.523313 
L 42.566838 53.523313 
L 42.566838 53.402674 
L 43.037366 53.402674 
L 43.037366 53.034281 
L 43.515495 53.034281 
L 43.515495 51.663309 
L 44.006017 51.663309 
L 44.006017 51.508596 
L 44.503513 51.508596 
L 44.503513 51.207051 
L 45.008817 51.207051 
L 45.008817 50.82457 
L 45.522478 50.82457 
L 45.522478 50.38414 
L 53.518169 50.38414 
L 53.518169 50.698805 
L 54.148106 50.698805 
L 54.148106 51.517846 
L 56.740454 51.517846 
L 56.740454 51.376607 
L 57.41345 51.376607 
L 57.41345 51.551203 
L 58.095369 51.551203 
L 58.095369 52.073883 
L 58.784135 52.073883 
L 58.784135 53.035293 
L 59.476974 53.035293 
L 59.476974 53.511037 
L 60.177195 53.511037 
L 60.177195 55.057328 
L 60.877639 55.057328 
L 60.877639 56.907471 
L 61.576124 56.907471 
L 61.576124 92.945097 
L 62.031947 92.945097 
L 62.031947 95.258536 
L 62.478413 95.258536 
L 62.478413 96.915571 
L 62.919935 96.915571 
L 62.919935 97.690689 
L 63.362804 97.690689 
L 63.362804 98.954819 
L 63.803339 98.954819 
L 63.803339 99.462232 
L 64.247173 99.462232 
L 64.247173 99.815198 
L 64.69555 99.815198 
L 64.69555 100.19707 
L 65.608073 100.270504 
L 65.608073 100.391869 
L 97.742255 100.498651 
L 97.742255 103.202002 
L 98.85363 103.202002 
L 98.85363 134.823707 
L 99.333064 134.823707 
L 99.333064 134.958602 
L 107.673661 134.959419 
L 107.673661 135.083988 
L 115.392228 135.175137 
L 115.392228 135.299326 
L 119.729846 135.396647 
L 119.729846 135.512121 
L 123.46873 135.599158 
L 123.46873 135.662198 
L 134.474902 135.704073 
L 134.474902 144.473522 
L 135.630825 144.473522 
L 135.630825 144.718532 
L 139.447041 144.718532 
L 139.447041 144.318341 
L 140.922153 144.318341 
L 140.922153 143.7911 
L 142.554185 143.7911 
L 142.554185 143.449383 
L 144.33771 143.449383 
L 144.33771 143.118099 
L 146.288479 143.118099 
L 146.288479 142.768394 
L 148.428626 142.768394 
L 148.428626 142.333882 
L 150.794081 142.333882 
L 150.794081 141.477538 
L 153.483223 141.477538 
L 153.483223 141.029924 
L 156.467507 141.029924 
L 156.467507 140.447622 
L 159.81324 140.447622 
L 159.81324 140.120828 
L 163.51869 140.120828 
L 163.51869 139.185788 
L 167.775699 139.185788 
L 167.775699 135.694971 
L 173.316022 135.694971 
L 173.316022 133.708305 
L 179.959952 133.708305 
L 179.959952 132.874495 
L 187.558183 132.874495 
L 187.558183 135.247714 
L 195.194422 135.247714 
L 195.194422 141.481801 
L 201.362014 141.481801 
L 201.362014 149.529639 
L 204.862898 149.529639 
L 204.862898 153.325374 
L 206.993027 153.325374 
L 206.993027 155.835438 
L 208.038732 155.835438 
L 208.038732 156.141227 
L 213.094413 156.229533 
L 213.094413 155.865534 
L 215.495537 155.865534 
L 215.495537 153.572428 
L 222.1973 153.572428 
L 222.1973 147.259597 
L 243.911347 147.259597 
L 243.911347 130.349867 
L 249.211406 130.349867 
L 249.211406 130.349867 
" style="fill:none;stroke:#6aadd5;stroke-linecap:round;stroke-width:2;"/>
   </g>
   <g id="line2d_14">
    <path clip-path="url(#pd771dc661c)" d="M 42.102656 38.652815 
L 45.760648 38.652815 
L 45.760648 38.652815 
L 49.540573 38.652815 
L 49.540573 38.652815 
L 53.448631 38.652815 
L 53.448631 39.50291 
L 57.462586 39.50291 
L 57.462586 63.174205 
L 60.785482 63.174205 
L 60.785482 93.399943 
L 63.126867 93.399943 
L 63.126867 99.303132 
L 65.330709 99.303132 
L 65.330709 101.351556 
L 67.536042 101.351556 
L 67.536042 102.051301 
L 69.796187 102.051301 
L 69.796187 102.577578 
L 72.121075 102.577578 
L 72.121075 102.799813 
L 74.527399 102.799813 
L 74.527399 103.417769 
L 77.00182 103.417769 
L 77.00182 103.763791 
L 79.560829 103.763791 
L 79.560829 103.921341 
L 82.218679 103.921341 
L 82.218679 104.092515 
L 84.980815 104.092515 
L 84.980815 104.375179 
L 87.847853 104.375179 
L 87.847853 104.598007 
L 90.829808 104.598007 
L 90.829808 104.598007 
L 93.947306 104.598007 
L 93.947306 104.728414 
L 97.201796 104.728414 
L 97.201796 104.728414 
L 100.611262 104.728414 
L 100.611262 106.131268 
L 104.092391 106.131268 
L 104.092391 137.829009 
L 105.501955 137.829009 
L 105.501955 137.835452 
L 106.983324 137.835452 
L 106.983324 137.874508 
L 108.539598 137.874508 
L 108.539598 138.004492 
L 110.169254 138.004492 
L 110.169254 138.046626 
L 111.885771 138.046626 
L 111.885771 138.103676 
L 113.695114 138.103676 
L 113.695114 138.187823 
L 115.602674 138.187823 
L 115.602674 138.221385 
L 117.622367 138.221385 
L 117.622367 138.263334 
L 119.763676 138.263334 
L 119.763676 138.263894 
L 122.043069 138.263894 
L 122.043069 138.279802 
L 124.472433 138.279802 
L 124.472433 138.301486 
L 127.066445 138.301486 
L 127.066445 138.38027 
L 129.834469 138.38027 
L 129.834469 138.4266 
L 132.800413 138.4266 
L 132.800413 138.529796 
L 135.977426 138.529796 
L 135.977426 138.675366 
L 139.38258 138.675366 
L 139.38258 138.693705 
L 143.067946 138.693705 
L 143.067946 138.677593 
L 147.07717 138.677593 
L 147.07717 138.677593 
L 151.450868 138.677593 
L 151.450868 138.675366 
L 156.241669 138.675366 
L 156.241669 138.675366 
L 161.511551 138.675366 
L 161.511551 138.675366 
L 167.336157 138.675366 
L 167.336157 142.00249 
L 172.677638 142.00249 
L 172.677638 142.00249 
L 178.647528 142.00249 
L 178.647528 142.00249 
L 185.363655 142.00249 
L 185.363655 142.306478 
L 192.828103 142.306478 
L 192.828103 143.881218 
L 200.487653 143.881218 
L 200.487653 144.867553 
L 208.695936 144.867553 
L 208.695936 152.967335 
L 212.239719 152.967335 
L 212.239719 155.160196 
L 214.497683 155.160196 
L 214.497683 155.252998 
L 217.10922 155.252998 
L 217.10922 155.258971 
L 220.293387 155.258971 
L 220.293387 155.249774 
L 224.288437 155.249774 
L 224.288437 148.89842 
L 242.60235 148.89842 
L 242.60235 143.662892 
L 249.211406 143.662892 
" style="fill:none;stroke:#c5daee;stroke-linecap:round;stroke-width:2;"/>
   </g>
   <g id="line2d_15">
    <path clip-path="url(#pd771dc661c)" d="M 42.102656 130.024838 
L 42.200356 130.024838 
L 42.200356 130.024838 
L 42.200356 130.024838 
L 42.299141 130.024838 
L 42.41015 101.209792 
L 42.616236 101.209792 
L 42.616236 76.636424 
L 42.915271 76.636424 
L 42.915271 57.898981 
L 43.287587 57.898981 
L 43.287587 54.55334 
L 43.676779 54.55334 
L 43.676779 53.064326 
L 44.076126 53.064326 
L 44.076126 52.629211 
L 44.481769 52.629211 
L 44.481769 52.432604 
L 44.892897 52.432604 
L 44.892897 52.092001 
L 45.310178 52.092001 
L 45.310178 51.929575 
L 45.733018 51.929575 
L 45.733018 51.686435 
L 46.161846 51.686435 
L 46.161846 51.458247 
L 46.596712 51.458247 
L 46.596712 51.058054 
L 47.038443 51.058054 
L 47.038443 50.677351 
L 47.941391 50.627503 
L 47.941391 50.500387 
L 48.867809 50.500387 
L 48.867809 50.338517 
L 49.818985 50.269422 
L 49.818985 49.93616 
L 51.295986 49.925367 
L 51.295986 49.729979 
L 51.801812 49.729979 
L 51.801812 49.606849 
L 53.360947 49.510853 
L 53.360947 49.191886 
L 55.544503 49.191886 
L 55.544503 49.040683 
L 57.262545 49.040683 
L 57.262545 48.773468 
L 57.852362 48.773468 
L 57.852362 48.552636 
L 64.931881 48.552636 
L 64.931881 48.773468 
L 66.341923 48.773468 
L 66.341923 49.191886 
L 67.060198 49.191886 
L 67.060198 49.583071 
L 67.786811 49.583071 
L 67.786811 50.154072 
L 68.520706 50.154072 
L 68.520706 50.621632 
L 69.262741 50.621632 
L 69.262741 51.705196 
L 70.008746 51.705196 
L 70.008746 52.765239 
L 70.758922 52.765239 
L 70.758922 52.936337 
L 71.519763 52.936337 
L 71.519763 53.240207 
L 72.290537 53.240207 
L 72.290537 54.291996 
L 73.065858 54.291996 
L 73.065858 55.699381 
L 73.843065 55.699381 
L 73.843065 56.306292 
L 74.628314 56.306292 
L 74.628314 88.630672 
L 75.17213 88.630672 
L 75.17213 110.544086 
L 75.549665 110.544086 
L 75.549665 113.194847 
L 75.911977 113.194847 
L 75.911977 114.48157 
L 76.269783 114.48157 
L 76.269783 116.027695 
L 76.620695 116.027695 
L 76.620695 117.4147 
L 76.965783 117.4147 
L 76.965783 117.610629 
L 77.315165 117.610629 
L 77.315165 117.768398 
L 79.146308 117.871292 
L 79.146308 118.051142 
L 79.922332 118.051142 
L 79.922332 118.22895 
L 96.242526 118.299031 
L 96.242526 121.096834 
L 96.951104 121.096834 
L 96.951104 123.133764 
L 97.637888 123.133764 
L 97.637888 124.065532 
L 106.341874 124.12705 
L 106.341874 124.473854 
L 107.270567 124.473854 
L 107.270567 124.874485 
L 108.217197 124.874485 
L 108.217197 125.460635 
L 109.176928 125.460635 
L 109.176928 126.465332 
L 110.137261 126.465332 
L 110.137261 127.993968 
L 111.081079 127.993968 
L 111.081079 128.348756 
L 112.045247 128.348756 
L 112.045247 128.613481 
L 113.033674 128.613481 
L 113.033674 129.043048 
L 115.083281 129.109425 
L 115.083281 129.488319 
L 116.14846 129.488319 
L 116.14846 129.609699 
L 118.38733 129.668808 
L 118.38733 129.890857 
L 119.560764 129.890857 
L 119.560764 130.256975 
L 120.764174 130.256975 
L 120.764174 130.825905 
L 121.989799 130.825905 
L 121.989799 130.96098 
L 123.259045 130.96098 
L 123.259045 131.670509 
L 124.546125 131.670509 
L 124.546125 131.879125 
L 125.877231 131.879125 
L 125.877231 132.21059 
L 127.248398 132.21059 
L 127.248398 133.954727 
L 128.582611 133.954727 
L 128.582611 134.906047 
L 129.921647 134.906047 
L 129.921647 136.103466 
L 135.627694 136.120368 
L 135.627694 136.681538 
L 137.195004 136.681538 
L 137.195004 148.279183 
L 142.322864 148.223557 
L 142.322864 148.150702 
L 145.70441 148.093349 
L 145.70441 147.749878 
L 147.036621 147.749878 
L 147.036621 147.340763 
L 148.522527 147.340763 
L 148.522527 146.650327 
L 150.224611 146.650327 
L 150.224611 145.484146 
L 152.250634 145.484146 
L 152.250634 144.05327 
L 154.694504 144.05327 
L 154.694504 134.881544 
L 159.118067 134.881544 
L 159.118067 131.053109 
L 164.7321 131.053109 
L 164.7321 128.722269 
L 171.391697 128.722269 
L 171.391697 127.831375 
L 178.909587 127.831375 
L 178.909587 127.583501 
L 187.247836 127.583501 
L 187.247836 128.4983 
L 196.184094 128.4983 
L 196.184094 132.815299 
L 204.646683 132.815299 
L 204.646683 151.242991 
L 207.108035 151.242991 
L 207.108035 152.644252 
L 209.278504 152.644252 
L 209.278504 156.476812 
L 210.523205 156.568362 
L 210.523205 156.617305 
L 215.671842 156.566663 
L 215.671842 153.473746 
L 222.532847 153.473746 
L 222.532847 135.374438 
L 249.211406 135.374438 
L 249.211406 135.374438 
" style="fill:none;stroke:#2070b4;stroke-linecap:round;stroke-width:2;"/>
   </g>
   <g id="line2d_16">
    <path clip-path="url(#pd771dc661c)" d="M 42.102656 88.353618 
L 42.293516 88.353618 
L 42.293516 88.353618 
L 42.293516 88.353618 
L 42.486247 88.353618 
L 42.486247 88.353618 
L 42.486247 88.353618 
L 42.680877 88.353618 
L 42.680877 88.353618 
L 42.680877 88.353618 
L 42.680877 88.286455 
L 42.877624 88.286455 
L 42.877624 87.780842 
L 43.280032 87.745093 
L 43.280032 86.758225 
L 43.487202 86.758225 
L 43.487202 87.829748 
L 43.693305 87.829748 
L 43.693305 88.140759 
L 44.10963 88.249886 
L 44.10963 88.307716 
L 44.320655 88.307716 
L 44.320655 88.559047 
L 45.183341 88.63456 
L 45.183341 88.732444 
L 45.62777 88.63456 
L 45.62777 88.559047 
L 45.853936 88.559047 
L 45.853936 88.353618 
L 46.314861 88.37423 
L 46.314861 88.525003 
L 46.548517 88.525003 
L 46.548517 88.286455 
L 46.785527 88.286455 
L 46.785527 88.111485 
L 47.514618 88.037666 
L 47.514618 87.897357 
L 47.763637 87.897357 
L 47.763637 87.780842 
L 48.271041 87.745696 
L 48.271041 87.518943 
L 49.056434 87.518943 
L 49.056434 87.006272 
L 49.326272 87.006272 
L 49.326272 86.783118 
L 50.441584 86.67219 
L 50.441584 86.488906 
L 51.021327 86.453463 
L 51.021327 86.34126 
L 51.919549 86.249307 
L 51.919549 86.211354 
L 52.852934 86.100552 
L 52.852934 85.942544 
L 53.1727 85.942544 
L 53.1727 85.815574 
L 55.532928 85.74133 
L 55.532928 85.691226 
L 57.357397 85.636001 
L 57.357397 85.463945 
L 60.136183 85.402217 
L 60.136183 85.279713 
L 69.853778 85.279713 
L 69.853778 85.402636 
L 70.423001 85.402636 
L 70.423001 85.755901 
L 70.998885 85.755901 
L 70.998885 86.747046 
L 71.576383 86.747046 
L 71.576383 120.434866 
L 71.884931 120.434866 
L 71.884931 123.565277 
L 72.172409 123.565277 
L 72.172409 123.756012 
L 74.983448 123.7607 
L 74.983448 123.98073 
L 75.668373 123.983148 
L 75.668373 124.235153 
L 76.017977 124.235153 
L 76.017977 124.393232 
L 77.859664 124.471806 
L 77.859664 124.551923 
L 81.66567 124.63802 
L 81.66567 124.675594 
L 84.117625 124.705424 
L 84.117625 124.89268 
L 85.720889 124.89268 
L 85.720889 125.033971 
L 86.850825 125.033971 
L 86.850825 125.269303 
L 88.029429 125.269303 
L 88.029429 125.405898 
L 88.63882 125.405898 
L 88.63882 125.532036 
L 91.228916 125.567936 
L 91.228916 125.812991 
L 94.088474 125.844253 
L 94.088474 125.980409 
L 95.638111 125.983559 
L 95.638111 126.213567 
L 97.26933 126.226702 
L 97.26933 126.518654 
L 98.985629 126.534968 
L 98.985629 126.665629 
L 99.880645 126.665629 
L 99.880645 126.829838 
L 100.799649 126.829838 
L 100.799649 128.359943 
L 101.701779 128.359943 
L 101.701779 129.516058 
L 102.597279 129.516058 
L 102.597279 129.675662 
L 103.517896 129.675662 
L 103.517896 130.057532 
L 104.457293 130.057532 
L 104.457293 130.29139 
L 105.421433 130.29139 
L 105.421433 130.590955 
L 107.429807 130.667329 
L 107.429807 130.773304 
L 108.484169 130.773304 
L 108.484169 131.25053 
L 109.558945 131.25053 
L 109.558945 131.564663 
L 110.661816 131.564663 
L 110.661816 131.908242 
L 112.964796 132.004787 
L 112.964796 132.072069 
L 114.18135 132.072069 
L 114.18135 132.561155 
L 115.424434 132.561155 
L 115.424434 133.202146 
L 116.687403 133.202146 
L 116.687403 133.443171 
L 117.992332 133.443171 
L 117.992332 133.861166 
L 119.331796 133.861166 
L 119.331796 134.231383 
L 120.71042 134.231383 
L 120.71042 134.886955 
L 122.112909 134.886955 
L 122.112909 135.167197 
L 123.564154 135.167197 
L 123.564154 135.319851 
L 125.075892 135.319851 
L 125.075892 135.657251 
L 126.639314 135.657251 
L 126.639314 135.793193 
L 131.800697 135.817543 
L 131.800697 140.301552 
L 133.320525 140.301552 
L 133.320525 149.173847 
L 139.98245 149.173847 
L 139.98245 148.362586 
L 141.322148 148.362586 
L 141.322148 143.58591 
L 143.495185 143.58591 
L 143.495185 133.629721 
L 147.483193 133.629721 
L 147.483193 131.951161 
L 152.090278 131.951161 
L 152.090278 130.666372 
L 157.330078 130.666372 
L 157.330078 130.190983 
L 163.125572 130.190983 
L 163.125572 130.017563 
L 176.464474 129.983265 
L 176.464474 130.795359 
L 183.914219 130.795359 
L 183.914219 132.723127 
L 191.55873 132.723127 
L 191.55873 145.513532 
L 195.707427 145.513532 
L 195.707427 152.307715 
L 249.211406 152.307058 
L 249.211406 152.307058 
" style="fill:none;stroke:#addea7;stroke-linecap:round;stroke-width:2;"/>
   </g>
   <g id="line2d_17">
    <path clip-path="url(#pd771dc661c)" d="M 42.102656 151.732057 
L 42.15142 151.732057 
L 42.15142 151.732057 
L 42.15142 151.732057 
L 42.201011 151.732057 
L 42.201011 151.732057 
L 42.201011 151.732057 
L 42.251449 151.732057 
L 42.251449 151.732057 
L 42.251449 151.732057 
L 42.355184 151.710529 
L 42.518905 151.608335 
L 42.576274 151.583368 
L 42.756483 151.491051 
L 42.819374 151.407687 
L 42.884093 151.407687 
L 42.951344 151.257879 
L 45.334422 151.34382 
L 45.334422 151.599704 
L 45.449925 151.599704 
L 45.449925 151.904052 
L 45.56254 151.904052 
L 45.647931 154.506497 
L 45.713546 154.506497 
L 45.776224 154.812772 
L 47.108208 154.912849 
L 47.208896 155.028751 
L 47.310624 155.028751 
L 47.310624 154.798945 
L 47.42511 154.798945 
L 47.42511 154.384781 
L 48.006825 154.309733 
L 48.006825 154.254877 
L 48.171411 154.254877 
L 48.171411 154.113285 
L 48.34985 154.113285 
L 48.34985 153.580794 
L 48.563305 153.580794 
L 48.563305 151.72125 
L 48.885973 151.72125 
L 48.885973 150.398641 
L 49.297217 150.398641 
L 49.297217 150.208879 
L 49.738289 150.208879 
L 49.738289 149.917974 
L 50.21774 149.917974 
L 50.21774 150.233502 
L 50.699723 150.233502 
L 50.699723 150.398641 
L 51.194076 150.398641 
L 51.194076 150.71253 
L 51.690908 150.71253 
L 51.690908 150.91672 
L 52.731752 150.9174 
L 52.731752 151.042702 
L 53.866768 151.044271 
L 53.866768 151.538241 
L 54.4373 151.538241 
L 54.4373 151.297039 
L 55.730458 151.29864 
L 55.730458 151.583325 
L 56.406245 151.583325 
L 56.406245 151.042702 
L 57.188952 151.042702 
L 57.188952 150.9174 
L 58.039492 150.9174 
L 58.039492 149.870066 
L 59.088559 149.870066 
L 59.088559 149.387076 
L 62.965532 149.298183 
L 62.965532 149.023309 
L 64.521022 149.023309 
L 64.521022 148.867445 
L 66.236319 148.867445 
L 66.236319 148.705128 
L 70.23008 148.600934 
L 70.23008 148.476199 
L 156.407442 148.410554 
L 156.407442 148.774661 
L 174.978122 148.774661 
L 174.978122 155.550726 
L 180.994248 155.550726 
L 180.994248 155.844996 
L 188.27716 155.844996 
L 188.27716 149.213484 
L 237.72582 149.213484 
L 237.72582 151.753967 
L 249.211406 151.753967 
L 249.211406 151.753967 
" style="fill:none;stroke:#a93b03;stroke-linecap:round;stroke-width:2;"/>
   </g>
   <g id="line2d_18">
    <path clip-path="url(#pd771dc661c)" d="M 42.102656 123.802376 
L 42.419691 123.802376 
L 42.419691 136.30012 
L 42.623567 136.30012 
L 42.623567 137.729601 
L 42.817331 137.729601 
L 42.925012 152.479437 
L 43.033038 152.525197 
L 43.087594 152.642939 
L 43.142721 152.642939 
L 44.272088 152.617187 
L 44.357753 152.118796 
L 44.448988 152.118796 
L 44.545518 140.609296 
L 44.83771 140.609296 
L 44.83771 136.783717 
L 45.204035 136.783717 
L 45.204035 134.996577 
L 45.611562 134.996577 
L 45.611562 134.556901 
L 46.037489 134.556901 
L 46.037489 134.157834 
L 47.407092 134.134525 
L 47.407092 134.996577 
L 47.870385 134.996577 
L 47.870385 135.159051 
L 48.342799 135.159051 
L 48.342799 136.410385 
L 48.801242 136.410385 
L 48.801242 137.549888 
L 49.24723 137.549888 
L 49.24723 139.010966 
L 49.672574 139.010966 
L 49.672574 142.473899 
L 50.029116 142.473899 
L 50.029116 151.526034 
L 50.178244 151.526034 
L 50.178244 151.731593 
L 50.79251 151.835799 
L 50.79251 151.866814 
L 62.144224 151.972739 
L 62.144224 151.985199 
L 77.604575 151.997779 
L 77.604575 141.21991 
L 98.995498 141.118195 
L 98.995498 141.063823 
L 163.505985 141.070429 
L 163.505985 141.282117 
L 184.733578 141.282117 
L 184.733578 141.859015 
L 210.337136 141.859015 
L 210.337136 153.193133 
L 219.740629 153.193133 
L 219.740629 153.305433 
L 231.967958 153.305433 
L 231.967958 152.516861 
L 249.211406 152.516861 
L 249.211406 152.516861 
" style="fill:none;stroke:#37a055;stroke-linecap:round;stroke-width:2;"/>
   </g>
   <g id="line2d_19">
    <path clip-path="url(#pd771dc661c)" d="M 42.102656 152.560087 
L 42.181045 152.560087 
L 42.181045 152.560087 
L 42.181045 152.560087 
L 42.261129 152.583414 
L 42.6896 152.589773 
L 42.778344 153.216144 
L 42.861243 153.216144 
L 42.943704 153.357009 
L 43.202343 153.400544 
L 43.28582 154.165661 
L 43.362385 154.165661 
L 43.463735 157.723935 
L 43.472964 157.72382 
L 43.592685 157.68164 
L 43.592685 157.494235 
L 44.232438 157.494235 
L 44.232438 156.502974 
L 48.9671 156.502974 
L 48.9671 151.353734 
L 85.982456 151.353734 
L 85.982456 152.333309 
L 138.190342 152.333309 
L 138.190342 146.106679 
L 249.211406 146.106679 
L 249.211406 146.106679 
" style="fill:none;stroke:#959595;stroke-linecap:round;stroke-width:2;"/>
   </g>
   <g id="patch_3">
    <path d="M 37.102656 157.7255 
L 37.102656 32.6975 
" style="fill:none;stroke:#262626;stroke-linecap:square;stroke-linejoin:miter;stroke-width:0.5;"/>
   </g>
   <g id="patch_4">
    <path d="M 42.102656 162.7255 
L 209.502656 162.7255 
" style="fill:none;stroke:#262626;stroke-linecap:square;stroke-linejoin:miter;stroke-width:0.5;"/>
   </g>
   <g id="text_13">
    <text style="fill:#262626;font-family:Arial;font-size:10px;font-style:normal;font-weight:700;text-anchor:start;" transform="rotate(-0, 8.622656, 21.101112)" x="8.622656" y="21.101112">a</text>
   </g>
   <g id="legend_1">
    <g id="patch_5">
     <path d="M 93.210469 40.065312 
L 105.210469 40.065312 
L 105.210469 35.865312 
L 93.210469 35.865312 
z
" style="fill:#a93b03;stroke:#a93b03;stroke-linejoin:miter;stroke-width:0.5;"/>
    </g>
    <g id="text_14">
     <text style="fill:#262626;font-family:Arial;font-size:6px;font-style:normal;font-weight:400;text-anchor:start;" transform="rotate(-0, 110.010469, 40.065312)" x="110.010469" y="40.065312">AO coluzzii</text>
    </g>
    <g id="patch_6">
     <path d="M 93.210469 47.3525 
L 105.210469 47.3525 
L 105.210469 43.1525 
L 93.210469 43.1525 
z
" style="fill:#fa6949;stroke:#fa6949;stroke-linejoin:miter;stroke-width:0.5;"/>
    </g>
    <g id="text_15">
     <text style="fill:#262626;font-family:Arial;font-size:6px;font-style:normal;font-weight:400;text-anchor:start;" transform="rotate(-0, 110.010469, 47.3525)" x="110.010469" y="47.3525">BF coluzzii</text>
    </g>
    <g id="patch_7">
     <path d="M 93.210469 54.639687 
L 105.210469 54.639687 
L 105.210469 50.439687 
L 93.210469 50.439687 
z
" style="fill:#fece65;stroke:#fece65;stroke-linejoin:miter;stroke-width:0.5;"/>
    </g>
    <g id="text_16">
     <text style="fill:#262626;font-family:Arial;font-size:6px;font-style:normal;font-weight:400;text-anchor:start;" transform="rotate(-0, 110.010469, 54.639687)" x="110.010469" y="54.639687">GW</text>
    </g>
    <g id="patch_8">
     <path d="M 93.210469 62 
L 105.210469 62 
L 105.210469 57.8 
L 93.210469 57.8 
z
" style="fill:#c5daee;stroke:#c5daee;stroke-linejoin:miter;stroke-width:0.5;"/>
    </g>
    <g id="text_17">
     <text style="fill:#262626;font-family:Arial;font-size:6px;font-style:normal;font-weight:400;text-anchor:start;" transform="rotate(-0, 110.010469, 62)" x="110.010469" y="62">GN gambiae</text>
    </g>
    <g id="patch_9">
     <path d="M 93.210469 69.3575 
L 105.210469 69.3575 
L 105.210469 65.1575 
L 93.210469 65.1575 
z
" style="fill:#6aadd5;stroke:#6aadd5;stroke-linejoin:miter;stroke-width:0.5;"/>
    </g>
    <g id="text_18">
     <text style="fill:#262626;font-family:Arial;font-size:6px;font-style:normal;font-weight:400;text-anchor:start;" transform="rotate(-0, 110.010469, 69.3575)" x="110.010469" y="69.3575">BF gambiae</text>
    </g>
    <g id="patch_10">
     <path d="M 155.691094 40.065312 
L 167.691094 40.065312 
L 167.691094 35.865312 
L 155.691094 35.865312 
z
" style="fill:#2070b4;stroke:#2070b4;stroke-linejoin:miter;stroke-width:0.5;"/>
    </g>
    <g id="text_19">
     <text style="fill:#262626;font-family:Arial;font-size:6px;font-style:normal;font-weight:400;text-anchor:start;" transform="rotate(-0, 172.491094, 40.065312)" x="172.491094" y="40.065312">CM gambiae</text>
    </g>
    <g id="patch_11">
     <path d="M 155.691094 47.495937 
L 167.691094 47.495937 
L 167.691094 43.295937 
L 155.691094 43.295937 
z
" style="fill:#37a055;stroke:#37a055;stroke-linejoin:miter;stroke-width:0.5;"/>
    </g>
    <g id="text_20">
     <text style="fill:#262626;font-family:Arial;font-size:6px;font-style:normal;font-weight:400;text-anchor:start;" transform="rotate(-0, 172.491094, 47.495937)" x="172.491094" y="47.495937">GA gambiae</text>
    </g>
    <g id="patch_12">
     <path d="M 155.691094 54.926562 
L 167.691094 54.926562 
L 167.691094 50.726562 
L 155.691094 50.726562 
z
" style="fill:#addea7;stroke:#addea7;stroke-linejoin:miter;stroke-width:0.5;"/>
    </g>
    <g id="text_21">
     <text style="fill:#262626;font-family:Arial;font-size:6px;font-style:normal;font-weight:400;text-anchor:start;" transform="rotate(-0, 172.491094, 54.926562)" x="172.491094" y="54.926562">UG gambiae</text>
    </g>
    <g id="patch_13">
     <path d="M 155.691094 62.284062 
L 167.691094 62.284062 
L 167.691094 58.084062 
L 155.691094 58.084062 
z
" style="fill:#959595;stroke:#959595;stroke-linejoin:miter;stroke-width:0.5;"/>
    </g>
    <g id="text_22">
     <text style="fill:#262626;font-family:Arial;font-size:6px;font-style:normal;font-weight:400;text-anchor:start;" transform="rotate(-0, 172.491094, 62.284062)" x="172.491094" y="62.284062">KE</text>
    </g>
   </g>
  </g>
  <g id="axes_2">
   <g id="matplotlib.axis_3">
    <g id="ytick_6">
     <g id="line2d_20">
      <defs>
       <path d="M 0 0 
L 3 0 
" id="maa7c8b2a59" style="stroke:#262626;stroke-width:0.8;"/>
      </defs>
      <g>
       <use style="fill:#262626;stroke:#262626;stroke-width:0.8;" x="214.502656" xlink:href="#maa7c8b2a59" y="157.7255"/>
      </g>
     </g>
     <g id="text_23">
      <text style="fill:#262626;font-family:Arial;font-size:7px;font-style:normal;font-weight:400;text-anchor:start;" transform="rotate(-0, 219.502656, 160.230734)" x="219.502656" y="160.230734">0</text>
     </g>
    </g>
    <g id="ytick_7">
     <g id="line2d_21">
      <g>
       <use style="fill:#262626;stroke:#262626;stroke-width:0.8;" x="214.502656" xlink:href="#maa7c8b2a59" y="127.956929"/>
      </g>
     </g>
     <g id="text_24">
      <text style="fill:#262626;font-family:Arial;font-size:7px;font-style:normal;font-weight:400;text-anchor:start;" transform="rotate(-0, 219.502656, 130.462163)" x="219.502656" y="130.462163">2-4</text>
     </g>
    </g>
    <g id="ytick_8">
     <g id="line2d_22">
      <g>
       <use style="fill:#262626;stroke:#262626;stroke-width:0.8;" x="214.502656" xlink:href="#maa7c8b2a59" y="98.188357"/>
      </g>
     </g>
     <g id="text_25">
      <text style="fill:#262626;font-family:Arial;font-size:7px;font-style:normal;font-weight:400;text-anchor:start;" transform="rotate(-0, 219.502656, 100.693592)" x="219.502656" y="100.693592">5-9</text>
     </g>
    </g>
    <g id="ytick_9">
     <g id="line2d_23">
      <g>
       <use style="fill:#262626;stroke:#262626;stroke-width:0.8;" x="214.502656" xlink:href="#maa7c8b2a59" y="68.419786"/>
      </g>
     </g>
     <g id="text_26">
      <text style="fill:#262626;font-family:Arial;font-size:7px;font-style:normal;font-weight:400;text-anchor:start;" transform="rotate(-0, 219.502656, 70.92502)" x="219.502656" y="70.92502">7-13</text>
     </g>
    </g>
    <g id="ytick_10">
     <g id="line2d_24">
      <g>
       <use style="fill:#262626;stroke:#262626;stroke-width:0.8;" x="214.502656" xlink:href="#maa7c8b2a59" y="38.651214"/>
      </g>
     </g>
     <g id="text_27">
      <text style="fill:#262626;font-family:Arial;font-size:7px;font-style:normal;font-weight:400;text-anchor:start;" transform="rotate(-0, 219.502656, 41.156449)" x="219.502656" y="41.156449">9-18</text>
     </g>
    </g>
    <g id="text_28">
     <!-- $N_{e}$ (millions) -->
     <g style="fill:#262626;" transform="translate(235.901406 76.1715)rotate(-270)">
      <text>
       <tspan style="font-family:Arial;font-size:7px;font-style:italic;font-weight:italic;" x="0" y="-0.90625">N</tspan>
       <tspan style="font-family:Arial;font-size:4.9px;font-style:italic;font-weight:italic;" x="5.055176" y="1.1845625000000002">e</tspan>
       <tspan style="font-family:Arial;font-size:7px;font-style:regular;font-weight:regular;" x="8.128791 10.073615 12.40467 18.235725 19.7909 21.346076 22.901252 24.456428 28.349494 32.242561 35.742561" y="-0.90625"> (millions)</tspan>
      </text>
     </g>
    </g>
   </g>
   <g id="patch_14">
    <path d="M 214.502656 157.7255 
L 214.502656 32.6975 
" style="fill:none;stroke:#262626;stroke-linecap:square;stroke-linejoin:miter;stroke-width:0.5;"/>
   </g>
  </g>
  <g id="axes_3">
   <g id="matplotlib.axis_4">
    <g id="xtick_6">
     <g id="line2d_25">
      <defs>
       <path d="M 0 0 
L 0 -3 
" id="m3829ad33a8" style="stroke:#262626;stroke-width:0.8;"/>
      </defs>
      <g>
       <use style="fill:#262626;stroke:#262626;stroke-width:0.8;" x="42.102656" xlink:href="#m3829ad33a8" y="27.6975"/>
      </g>
     </g>
     <g id="text_29">
      <text style="fill:#262626;font-family:Arial;font-size:7px;font-style:normal;font-weight:400;text-anchor:middle;" transform="rotate(-0, 42.102656, 21.30625)" x="42.102656" y="21.30625">0</text>
     </g>
    </g>
    <g id="xtick_7">
     <g id="line2d_26">
      <g>
       <use style="fill:#262626;stroke:#262626;stroke-width:0.8;" x="83.952656" xlink:href="#m3829ad33a8" y="27.6975"/>
      </g>
     </g>
     <g id="text_30">
      <text style="fill:#262626;font-family:Arial;font-size:7px;font-style:normal;font-weight:400;text-anchor:middle;" transform="rotate(-0, 83.952656, 21.30625)" x="83.952656" y="21.30625">10-20</text>
     </g>
    </g>
    <g id="xtick_8">
     <g id="line2d_27">
      <g>
       <use style="fill:#262626;stroke:#262626;stroke-width:0.8;" x="125.802656" xlink:href="#m3829ad33a8" y="27.6975"/>
      </g>
     </g>
     <g id="text_31">
      <text style="fill:#262626;font-family:Arial;font-size:7px;font-style:normal;font-weight:400;text-anchor:middle;" transform="rotate(-0, 125.802656, 21.30625)" x="125.802656" y="21.30625">20-39</text>
     </g>
    </g>
    <g id="xtick_9">
     <g id="line2d_28">
      <g>
       <use style="fill:#262626;stroke:#262626;stroke-width:0.8;" x="167.652656" xlink:href="#m3829ad33a8" y="27.6975"/>
      </g>
     </g>
     <g id="text_32">
      <text style="fill:#262626;font-family:Arial;font-size:7px;font-style:normal;font-weight:400;text-anchor:middle;" transform="rotate(-0, 167.652656, 21.30625)" x="167.652656" y="21.30625">30-59</text>
     </g>
    </g>
    <g id="xtick_10">
     <g id="line2d_29">
      <g>
       <use style="fill:#262626;stroke:#262626;stroke-width:0.8;" x="209.502656" xlink:href="#m3829ad33a8" y="27.6975"/>
      </g>
     </g>
     <g id="text_33">
      <text style="fill:#262626;font-family:Arial;font-size:7px;font-style:normal;font-weight:400;text-anchor:middle;" transform="rotate(-0, 209.502656, 21.30625)" x="209.502656" y="21.30625">40-79</text>
     </g>
    </g>
    <g id="text_34">
     <text style="fill:#262626;font-family:Arial;font-size:7px;font-style:normal;font-weight:400;text-anchor:middle;" transform="rotate(-0, 125.802656, 12.295781)" x="125.802656" y="12.295781">Time (kya)</text>
    </g>
   </g>
   <g id="patch_15">
    <path d="M 42.102656 27.6975 
L 209.502656 27.6975 
" style="fill:none;stroke:#262626;stroke-linecap:square;stroke-linejoin:miter;stroke-width:0.5;"/>
   </g>
  </g>
 </g>
 <defs>
  <clipPath id="pd771dc661c">
   <rect height="125.028" width="167.4" x="42.102656" y="32.6975"/>
  </clipPath>
 </defs>
</svg>
